<svg xmlns="http://www.w3.org/2000/svg" viewBox="0 0 1000 590" role="img" aria-labelledby="title desc">
<title id="title">Learning through connections</title><desc id="desc">Two leaders connect an open book with unfamiliar examples and shared experience.</desc>
<defs><marker id="arrow" viewBox="0 0 10 10" refX="9" refY="5" markerWidth="8" markerHeight="8" orient="auto-start-reverse"><path d="M 0 0 L 10 5 L 0 10 z" fill="#337d79"/></marker></defs>
<rect width="1000" height="590" fill="#f6f1e6"/><circle cx="784" cy="165" r="88" fill="#ead3a6"/><path d="M80 450 Q245 225 450 315 T925 190" fill="none" stroke="#aecac1" stroke-width="38" stroke-linecap="round"/><rect x="150" y="130" width="165" height="135" rx="13" fill="#fffdf8" stroke="#337d79" stroke-width="2"/><path d="M175 168 L280 168" stroke="#c58c32" stroke-width="7" fill="none" stroke-linecap="round"/><path d="M175 198 L258 198" stroke="#9aacae" stroke-width="5" fill="none" stroke-linecap="round"/><path d="M175 216 L245 216" stroke="#9aacae" stroke-width="5" fill="none" stroke-linecap="round"/><path d="M175 234 L232 234" stroke="#9aacae" stroke-width="5" fill="none" stroke-linecap="round"/><rect x="390" y="85" width="165" height="135" rx="13" fill="#fffdf8" stroke="#337d79" stroke-width="2"/><path d="M415 123 L520 123" stroke="#c58c32" stroke-width="7" fill="none" stroke-linecap="round"/><path d="M415 153 L498 153" stroke="#9aacae" stroke-width="5" fill="none" stroke-linecap="round"/><path d="M415 171 L485 171" stroke="#9aacae" stroke-width="5" fill="none" stroke-linecap="round"/><path d="M415 189 L472 189" stroke="#9aacae" stroke-width="5" fill="none" stroke-linecap="round"/><rect x="625" y="310" width="165" height="135" rx="13" fill="#fffdf8" stroke="#337d79" stroke-width="2"/><path d="M650 348 L755 348" stroke="#c58c32" stroke-width="7" fill="none" stroke-linecap="round"/><path d="M650 378 L733 378" stroke="#9aacae" stroke-width="5" fill="none" stroke-linecap="round"/><path d="M650 396 L720 396" stroke="#9aacae" stroke-width="5" fill="none" stroke-linecap="round"/><path d="M650 414 L707 414" stroke="#9aacae" stroke-width="5" fill="none" stroke-linecap="round"/><path d="M280 485 Q390 423 500 469 Q610 423 720 485 L720 540 Q610 487 500 526 Q390 487 280 540 Z" fill="#fffdf8" stroke="#24394a" stroke-width="4"/><path d="M500 469 L500 526" stroke="#337d79" stroke-width="4" fill="none" stroke-linecap="round"/><g transform="translate(210 360) scale(0.72)"><path d="M-15 29 L15 29 L42 51 L29 95 L-28 95 L-42 51 Z" fill="#86566f" stroke="#24394a" stroke-width="2"/><path d="M-29 51 L-45 81 L-65 66 M29 51 L45 80 L62 65" stroke="#86566f" stroke-width="15" stroke-linecap="round" fill="none"/><circle cx="-65" cy="66" r="8" fill="#a96449"/><circle cx="62" cy="65" r="8" fill="#a96449"/><path d="M-15 95 L-18 120 M15 95 L18 120" stroke="#24394a" stroke-width="18" stroke-linecap="round"/><path d="M-31 5 Q-42-49 0-40 Q42-43 34 37 L23 37 L22-10 Q0-8-22-20 L-24 37 L-35 37 Z" fill="#29343e"/><ellipse cx="0" cy="0" rx="27" ry="32" fill="#a96449" stroke="#24394a" stroke-width="2"/><path d="M-28-7 Q-27-39 0-36 Q28-38 29-10 Q3-11-18-24 Z" fill="#29343e"/><path d="M-9 15 Q0 21 10 14" fill="none" stroke="#24394a" stroke-width="2" stroke-linecap="round"/></g><g transform="translate(815 330) scale(0.72)"><path d="M-15 29 L15 29 L42 51 L29 95 L-28 95 L-42 51 Z" fill="#337d79" stroke="#24394a" stroke-width="2"/><path d="M-29 51 L-45 81 L-65 66 M29 51 L45 80 L62 65" stroke="#337d79" stroke-width="15" stroke-linecap="round" fill="none"/><circle cx="-65" cy="66" r="8" fill="#e6b28a"/><circle cx="62" cy="65" r="8" fill="#e6b28a"/><path d="M-15 95 L-18 120 M15 95 L18 120" stroke="#24394a" stroke-width="18" stroke-linecap="round"/><ellipse cx="0" cy="0" rx="27" ry="32" fill="#e6b28a" stroke="#24394a" stroke-width="2"/><path d="M-30-6 Q-37-42-13-38 Q7-52 21-34 Q39-33 31-6 L20-17 L5-20 L-11-17 Z" fill="#3a3d42"/><g fill="none" stroke="#24394a" stroke-width="2"><rect x="-23" y="-8" width="19" height="13" rx="5"/><rect x="4" y="-8" width="19" height="13" rx="5"/><path d="M-4-2 H4"/></g><path d="M-9 15 Q0 21 10 14" fill="none" stroke="#24394a" stroke-width="2" stroke-linecap="round"/></g></svg>
